<?xml version="1.0" encoding="UTF-8"?>
<svg width="185px" height="192px" viewBox="0 0 185 192" version="1.1" xmlns="http://www.w3.org/2000/svg" xmlns:xlink="http://www.w3.org/1999/xlink">
    <g id="Page-1" stroke="none" stroke-width="1" fill="none" fill-rule="evenodd">
        <g id="update-mobile-unsub-icon" transform="translate(-284.000000, -225.000000)">
            <g id="email-unsubscribe-(1)" transform="translate(284.000000, 225.000000)">
                <rect id="Rectangle" fill="#FFFFFF" fill-rule="nonzero" x="3" y="94" width="159" height="94" rx="1"></rect>
                <path d="M159.107143,96.8823529 L159.107143,185.117647 L5.89285714,185.117647 L5.89285714,96.8823529 L159.107143,96.8823529 L159.107143,96.8823529 Z M159.107143,91 L5.89285714,91 C2.63832201,91 0,93.6336191 0,96.8823529 L0,185.117647 C0,188.366381 2.63832201,191 5.89285714,191 L159.107143,191 C162.361678,191 165,188.366381 165,185.117647 L165,96.8823529 C165,93.6336191 162.361678,91 159.107143,91 Z" id="Shape" fill="#000000" fill-rule="nonzero"></path>
                <path d="M4.1781409,97 C3.86060713,97 3.55648604,96.873207 3.33474462,96.648102 C3.11300321,96.4229971 2.99243022,96.1187521 3,95.8043622 C2.99235594,95.4663167 3.15884048,95.1475338 3.4420332,94.9586671 L80.7627858,39.5510628 C81.7912951,38.8163124 83.1792606,38.8163124 84.2077699,39.5510628 L161.557967,94.9586671 C161.84116,95.1475338 162.007644,95.4663167 162,95.8043622 C162.00757,96.1187521 161.886997,96.4229971 161.665255,96.648102 C161.443514,96.873207 161.139393,97 160.821859,97 L4.1781409,97 Z" id="Path" fill="#EEF0F2" fill-rule="nonzero"></path>
                <path d="M82.5000036,41.8367533 L82.5000036,41.8367533 L155.39446,94.1632467 L9.60554765,94.1632467 L82.5000036,41.8367533 L82.5000036,41.8367533 Z M82.5000036,36 C81.2618079,36.0017554 80.0556293,36.389777 79.052691,37.1089831 L1.59128249,92.7040584 L1.59128249,92.7040584 C0.581342534,93.4542505 -0.00911008492,94.634746 0.000106315606,95.8850889 C-0.0076358556,96.9737388 0.42349162,98.0204726 1.19792978,98.7930186 C1.97236793,99.5655647 3.02606516,100 4.12520456,100 L160.874803,100 C161.973942,100 163.027639,99.5655647 163.802077,98.7930186 C164.576516,98.0204726 165.007643,96.9737388 164.999897,95.8850889 C165.006771,94.6501182 164.428696,93.4833649 163.438189,92.7332421 L163.438189,92.7332421 L85.9767804,37.2840857 C84.9876985,36.4963908 83.7682973,36.0460266 82.5000036,36 Z" id="Shape" fill="#38404F" fill-rule="nonzero"></path>
                <rect id="Rectangle" fill="#FFFFFF" fill-rule="nonzero" x="15" y="35" width="135" height="141" rx="1"></rect>
                <path d="M147.125,37.88 L147.125,173.12 L17.875,173.12 L17.875,37.88 L147.125,37.88 L147.125,37.88 Z M147.125,32 L17.875,32 C14.6303271,32 12,34.6325657 12,37.88 L12,173.12 C12,176.367434 14.6303271,179 17.875,179 L147.125,179 C150.369673,179 153,176.367434 153,173.12 L153,37.88 C153,34.6325657 150.369673,32 147.125,32 Z" id="Shape" fill="#38404F" fill-rule="nonzero"></path>
                <path d="M94.8800586,65.1897389 L93.1307877,79.8399479 C93.0115898,80.7631059 92.9521715,81.6928446 92.9528958,82.6234876 C92.9288554,82.9617562 93.034722,83.2965502 93.2493823,83.561101 C93.4141424,83.7862191 93.6798592,83.917517 93.9609502,83.912706 C94.8679107,83.9070215 95.7460279,83.5970918 96.4514376,83.0336935 C97.279537,82.3977849 97.9658945,81.5997898 98.4675464,80.68966 C99.0586112,79.6492382 99.5072621,78.5358587 99.8017361,77.3787128 C100.16301,76.0900629 100.352387,74.7602924 100.365061,73.4231564 C100.368657,71.2953141 99.8926363,69.193394 98.9715737,67.2700686 C98.1347492,65.4766381 96.9101611,63.8863693 95.3840858,62.6113021 C93.8084917,61.3101369 91.9976097,60.315908 90.0473271,59.6812603 C85.437078,58.1708189 80.4398103,58.2847063 75.9049165,60.0035649 C73.6995323,60.8591453 71.6850439,62.1332747 69.9751845,63.7540184 C68.272535,65.3321755 66.9284589,67.2497057 66.0319128,69.3796987 C65.0776494,71.5931345 64.5932754,73.9765859 64.6087771,76.3824986 C64.5745001,78.9724009 65.1001254,81.5396901 66.1505074,83.912706 C67.1100869,86.0595747 68.5375622,87.9705348 70.3309685,89.5090859 C72.1225014,91.0620627 74.2087466,92.2473147 76.468241,92.9958356 C78.8742667,93.8022471 81.3990963,94.2082079 83.9397032,94.1971528 C85.4814335,94.1971528 86.9045692,94.1971528 88.0015696,94.0506507 C89.1668671,94.0028415 90.3266498,93.8656941 91.4704628,93.6404448 C92.4932479,93.3661111 93.4863017,92.993183 94.4353287,92.5270289 C95.4569501,91.9763063 96.446769,91.3698267 97.4001947,90.710403 L99.9499794,95.6328732 C97.6119132,97.07791 95.0756947,98.1831071 92.4192199,98.9145201 C89.636598,99.6605378 86.7634782,100.025318 83.8804059,99.9986355 C80.3825828,99.9897739 76.9194256,99.3132371 73.681267,98.0062071 C70.7325762,96.8610551 68.0496181,95.136619 65.7947235,92.9372348 C63.6375361,90.8014437 61.9339732,88.2611706 60.7841001,85.4656282 C59.590267,82.5938898 58.9855911,79.5163859 59.0051805,76.411799 C58.9375165,73.2774023 59.5333396,70.163617 60.7544514,67.2700686 C61.9729973,64.4854491 63.7362678,61.9662054 65.9429668,59.8570628 C68.1743264,57.7057602 70.8007786,55.9952479 73.681267,54.8173909 C76.7516856,53.592383 80.0356385,52.9751633 83.34673,53.000765 C86.3853052,52.9775987 89.4016472,53.5141631 92.2413279,54.5829876 C94.8797402,55.5722985 97.3117722,57.0322553 99.4163035,58.890149 C101.419547,60.708922 103.041445,62.8991485 104.189738,65.336241 C105.352589,67.7754959 105.969468,70.433896 105.998306,73.1301522 C106.025908,75.3414183 105.716058,77.5441635 105.079198,79.6641454 C104.548198,81.5344599 103.673861,83.2923908 102.499764,84.8503194 C101.404772,86.2319949 100.018779,87.361759 98.4378978,88.1612666 C96.7821345,88.9427836 94.9654555,89.3339473 93.1307877,89.3039829 C92.0805721,89.3389242 91.0450752,89.0523906 90.1659217,88.4835712 C89.2770417,87.9131836 88.5194391,87.1644795 87.9422723,86.2860399 C86.9415246,87.3942865 85.6634005,88.2228878 84.2361898,88.6886742 C83.1601177,89.0151955 82.0411874,89.1830383 80.9155399,89.1867813 C79.5636551,89.1633406 78.2312556,88.8640793 77.0019169,88.3077687 C75.6166936,87.6782644 74.3526577,86.8157291 73.2661858,85.7586324 C72.203556,84.6302462 71.3414935,83.3325282 70.716401,81.9202776 C69.9469352,80.3611049 69.5609104,78.6443968 69.589752,76.9099061 C69.5708381,75.2110717 69.9354695,73.5294453 70.6571037,71.9874359 C71.3144315,70.5341059 72.2508424,69.2206177 73.4144291,68.1197807 C74.5629312,67.0573253 75.8996631,66.2130573 77.3577008,65.6292452 C78.7875757,65.0487868 80.3184864,64.7501824 81.8642971,64.7502326 C83.4036082,64.7167701 84.928622,65.0483325 86.311596,65.7171464 C87.4659247,66.2781732 88.425617,67.1654049 89.0689213,68.2662828 L89.6025972,65.336241 L94.8800586,65.1897389 Z M75.8752678,76.763404 C75.8885348,78.3309817 76.5154467,79.8325992 77.6245387,80.9533638 C78.1543173,81.5089061 78.7888254,81.9568028 79.4924043,82.2718826 C80.2054704,82.606421 80.986042,82.7767308 81.7753511,82.7699897 C82.564987,82.7798459 83.3462624,82.6093825 84.0582979,82.2718826 C84.7702228,81.9562003 85.414342,81.5086235 85.9558121,80.9533638 C86.497395,80.4086287 86.9210812,79.7606255 87.2010558,79.0488366 C87.5125833,78.3261471 87.673906,77.5489362 87.6754343,76.763404 C87.6809245,75.9866307 87.5192228,75.2175817 87.2010558,74.5072718 C86.9002455,73.7973855 86.4791267,73.1434 85.9558121,72.5734443 C85.414342,72.0181846 84.7702228,71.5706078 84.0582979,71.2549254 C83.3462624,70.9174255 82.564987,70.7469622 81.7753511,70.7568183 C80.986042,70.7500773 80.2054704,70.9203871 79.4924043,71.2549254 C78.7888254,71.5700053 78.1543173,72.017902 77.6245387,72.5734443 C77.0920516,73.1422262 76.660981,73.796098 76.3496464,74.5072718 C76.0314793,75.2175817 75.8697776,75.9866307 75.8752678,76.763404 L75.8752678,76.763404 Z" id="Shape" fill="#38404F" fill-rule="nonzero"></path>
                <path d="M68,111.5 L97,111.5" id="Path" stroke="#38404F" stroke-width="2" fill="#FFFFFF" fill-rule="nonzero"></path>
                <path d="M56,123.5 L109,123.5" id="Path" stroke="#38404F" stroke-width="2" fill="#FFFFFF" fill-rule="nonzero"></path>
                <path d="M5.94444444,188 C4.42664791,188.007563 3.1517625,186.861069 3,185.352049 L3,97.0882638 L56.3533333,135.659538 L77.2883333,150.811488 C80.3863483,153.063762 84.5842072,153.063762 87.6822222,150.811488 L108.617222,135.630117 L154.903889,102.1193 L162,97 L162,185.263785 C161.848237,186.772805 160.573352,187.919299 159.055556,187.911699 L5.94444444,188 Z" id="Path" fill="#FFFFFF" fill-rule="nonzero"></path>
                <path d="M159.096356,103.291154 L159.096356,185.152605 L5.9036439,185.152605 L5.9036439,103.291154 L8.31937514,105.016092 L54.6307104,138.374633 L75.5474077,153.431293 C77.5611601,154.878147 79.9844254,155.655885 82.4705399,155.653246 C84.9588961,155.670178 87.386536,154.891036 89.393672,153.431293 L110.339829,138.374633 L156.651165,105.1038 L159.096356,103.291154 L159.096356,103.291154 Z M163.397536,93 L153.204329,100.367531 L106.892993,133.667599 L85.946836,148.753495 C83.8824646,150.240847 81.0880752,150.240847 79.0237038,148.753495 L58.0775465,133.696836 L11.7956713,100.367531 L1.60246391,93.0584725 L1.60246391,93.0584725 C0.592663569,93.8100133 0.00229257646,94.992631 0.0116165127,96.2452218 L0.0116165127,185.152605 C-0.00387217091,185.34721 -0.00387217091,185.542724 0.0116165127,185.73733 C0.315303279,188.73639 2.86643301,191.014956 5.9036439,190.999926 L159.096356,190.999926 C162.133567,191.014956 164.684697,188.73639 164.988383,185.73733 C165.003872,185.542724 165.003872,185.34721 164.988383,185.152605 L164.988383,96.2452218 C164.995362,95.0080309 164.417366,93.83918 163.426996,93.0877087 L163.397536,93 Z" id="Shape" fill="#38404F" fill-rule="nonzero"></path>
                <rect id="Rectangle" fill="#EEF0F3" fill-rule="nonzero" x="6" y="167" width="153" height="18"></rect>
                <path d="M106.556808,141.54207 L157.732736,186.084651 L7.26726418,186.084651 L58.4137464,141.719531 L75.5509097,154.200918 C77.5636478,155.664623 79.9856925,156.45142 82.4705547,156.448751 C84.9576575,156.465879 87.3840746,155.677662 89.3901997,154.200918 L106.556808,141.689954 L106.556808,141.54207 Z M106.880707,134.147884 L85.9450998,149.409485 C83.8817683,150.914159 81.0887864,150.914159 79.0254549,149.409485 L58.0898481,134.029577 L1.61376701,183.126976 C0.644506859,184.054602 0.0829337479,185.331765 0.0531662243,186.676186 C-0.138855407,187.937246 0.194090727,189.222117 0.973829629,190.229114 C1.75356853,191.236111 2.91141449,191.876529 4.17550791,192 L160.824492,192 C162.088586,191.876529 163.246431,191.236111 164.02617,190.229114 C164.805909,189.222117 165.138855,187.937246 164.946834,186.676186 C164.917066,185.331765 164.355493,184.054602 163.386233,183.126976 L106.880707,134 L106.880707,134.147884 Z" id="Shape" fill="#38404F" fill-rule="nonzero"></path>
                <circle id="Oval" fill="#FFFFFF" fill-rule="nonzero" cx="149.5" cy="35.5" r="32.5"></circle>
                <path d="M149.5,5.91666667 C165.838424,5.91666667 179.083333,19.1615762 179.083333,35.5 C179.083333,51.8384238 165.838424,65.0833333 149.5,65.0833333 C133.161576,65.0833333 119.916667,51.8384238 119.916667,35.5 C119.916667,19.1615762 133.161576,5.91666667 149.5,5.91666667 L149.5,5.91666667 Z M149.5,0 C129.893891,0 114,15.8938914 114,35.5 C114,55.1061086 129.893891,71 149.5,71 C169.106109,71 185,55.1061086 185,35.5 C185,26.0848146 181.259832,17.0552507 174.602291,10.3977093 C167.944749,3.74016783 158.915185,0 149.5,0 Z" id="Shape" fill="#38404F" fill-rule="nonzero"></path>
                <circle id="Oval" fill="#EEF0F2" fill-rule="nonzero" cx="150" cy="35" r="25"></circle>
                <path d="M162,23 L138,47" id="Path" stroke="#000000" stroke-width="2"></path>
                <path d="M162,47 L138,23" id="Path" stroke="#000000" stroke-width="2"></path>
            </g>
        </g>
    </g>
</svg>